<?xml version="1.0" encoding="UTF-8"?>
<!-- torn bottom edge. clearly different pattern from top: longer flat sections and a few deeper notches. -->
<svg xmlns="http://www.w3.org/2000/svg" width="1600" height="40" viewBox="0 0 1600 40" preserveAspectRatio="none">
  <path fill="#f0ebe1" d="M0,0 L1600,0 L1600,16
    L1580,22 L1559,17 L1539,25 L1521,19 L1500,28 L1481,16
    L1462,23 L1440,14 L1419,28 L1397,18 L1376,30 L1358,21
    L1336,15 L1315,25 L1293,19 L1271,28 L1251,14 L1230,22
    L1208,18 L1187,29 L1166,21 L1144,15 L1124,26 L1102,17
    L1081,30 L1059,22 L1038,16 L1018,24 L996,19 L975,28
    L955,18 L933,23 L912,15 L890,29 L868,19 L847,25 L827,17
    L806,28 L784,21 L763,14 L743,26 L721,18 L700,29 L679,22
    L658,16 L637,24 L615,19 L594,28 L573,15 L552,22 L531,17
    L509,29 L488,20 L466,26 L446,18 L424,28 L403,21 L381,15
    L361,25 L339,19 L318,29 L296,17 L275,22 L254,15 L232,27
    L211,20 L190,29 L168,21 L147,16 L126,25 L104,19 L82,28
    L61,16 L40,23 L20,17 L0,26 Z"/>
  <path fill="none" stroke="#14171a" stroke-width="0.6" opacity="0.35"
    d="M0,26 L20,17 L40,23 L61,16 L82,28 L104,19 L126,25 L147,16
       L168,21 L190,29 L211,20 L232,27 L254,15 L275,22 L296,17
       L318,29 L339,19 L361,25 L381,15 L403,21 L424,28 L446,18
       L466,26 L488,20 L509,29 L531,17 L552,22 L573,15 L594,28
       L615,19 L637,24 L658,16 L679,22 L700,29 L721,18 L743,26
       L763,14 L784,21 L806,28 L827,17 L847,25 L868,19 L890,29
       L912,15 L933,23 L955,18 L975,28 L996,19 L1018,24 L1038,16
       L1059,22 L1081,30 L1102,17 L1124,26 L1144,15 L1166,21
       L1187,29 L1208,18 L1230,22 L1251,14 L1271,28 L1293,19
       L1315,25 L1336,15 L1358,21 L1376,30 L1397,18 L1419,28
       L1440,14 L1462,23 L1481,16 L1500,28 L1521,19 L1539,25
       L1559,17 L1580,22 L1600,16"/>
</svg>
